<svg id="Capa_1" enable-background="new 0 0 512 512" height="512" viewBox="0 0 512 512" width="512" xmlns="http://www.w3.org/2000/svg"><g><g><path d="m462.834 209.336-144.226-105.611v-72.82h144.226z" fill="#d4d4d2"/></g><g><path d="m457.683 61.811h-133.924c-17.069 0-30.905-13.837-30.905-30.905 0-17.069 13.837-30.906 30.905-30.906h133.924c17.069 0 30.905 13.837 30.905 30.905 0 17.069-13.836 30.906-30.905 30.906z" fill="#e7886e"/></g><g><path d="m390.721 30.905c0-17.068 13.837-30.905 30.906-30.905h-97.867c-17.069 0-30.905 13.837-30.905 30.905s13.837 30.905 30.905 30.905h97.867c-17.069.001-30.906-13.836-30.906-30.905z" fill="#d37159"/></g><g><path d="m256 57.878-206.834 151.458v261.457c0 22.758 18.449 41.207 41.207 41.207h11.099l61.811-22.412 61.812 22.412h196.532c22.758 0 41.207-18.449 41.207-41.207v-261.457z" fill="#e2e2e2"/></g><g><path d="m163.284 489.588 35.412 12.84c-9.048-7.559-14.808-18.923-14.808-31.635v-261.457l139.473-102.132-67.361-49.326-206.834 151.458v261.457c0 22.758 18.449 41.207 41.207 41.207h11.099z" fill="#d4d4d2"/></g><g><g><path d="m481.068 246.214c-6.337 0-12.729-1.942-18.234-5.972l-206.834-151.458-206.834 151.457c-13.77 10.085-33.109 7.096-43.194-6.676-10.084-13.771-7.095-33.109 6.676-43.194l225.093-164.827c10.871-7.961 25.647-7.961 36.518 0l225.093 164.828c13.771 10.084 16.76 29.423 6.676 43.194-6.054 8.266-15.443 12.648-24.96 12.648z" fill="#ed9b83"/></g></g><g><path d="m221.395 54.179c0-8.933 3.386-17.074 8.943-23.213l-217.69 159.406c-13.771 10.084-16.76 29.423-6.676 43.194 10.084 13.772 29.424 16.761 43.194 6.676l206.834-151.458c-19.112 0-34.605-15.493-34.605-34.605z" fill="#e7886e"/></g><g><path d="m225.095 512h-123.622v-144.225c0-34.137 27.674-61.811 61.811-61.811 34.137 0 61.811 27.674 61.811 61.811z" fill="#ed9b83"/></g><g><path d="m183.887 309.495c-6.446-2.279-13.377-3.531-20.604-3.531-34.137 0-61.811 27.674-61.811 61.811v144.225h41.207v-144.225c.001-26.911 17.204-49.793 41.208-58.28z" fill="#e7886e"/></g><g><path d="m400.225 450.189h-103.018c-11.379 0-20.604-9.225-20.604-20.604v-82.414c0-11.379 9.225-20.604 20.604-20.604h103.018c11.379 0 20.604 9.225 20.604 20.604v82.414c0 11.38-9.225 20.604-20.604 20.604z" fill="#9ae0eb"/></g><g><path d="m317.811 429.586v-82.414c0-11.379 9.225-20.604 20.604-20.604h-41.207c-11.379 0-20.604 9.225-20.604 20.604v82.414c0 11.379 9.225 20.604 20.604 20.604h41.207c-11.38-.001-20.604-9.225-20.604-20.604z" fill="#3ccadd"/></g><g><path d="m342.905 65.649c-48.026-21.345-86.905 22.107-86.905 22.107s-38.879-43.453-86.905-22.107c-48.027 21.345-48.027 92.241-5.336 139.506 26.303 29.121 55.21 48.113 73.527 58.403 11.626 6.531 25.802 6.531 37.428 0 18.317-10.29 47.225-29.282 73.527-58.403 42.691-47.265 42.691-118.161-5.336-139.506z" fill="#ffb2c1"/></g><g><path d="m274.714 263.558c-28.051-36.221-51.066-138.849-18.714-175.802 0 0-38.879-43.453-86.905-22.107-48.027 21.345-48.027 92.241-5.336 139.506 26.303 29.121 55.21 48.113 73.527 58.403 11.626 6.531 25.802 6.531 37.428 0z" fill="#ff9db0"/></g><g><g><g><path d="m277.23 149.413c0-13.12-9.505-14.353-21.23-14.353s-21.23 1.233-21.23 14.353 9.505 23.756 21.23 23.756 21.23-10.636 21.23-23.756z" fill="#423e4f"/></g></g><g><path d="m189.038 147.99c-4.142 0-7.5-3.357-7.5-7.5v-10.753c0-4.143 3.358-7.5 7.5-7.5s7.5 3.357 7.5 7.5v10.753c0 4.143-3.358 7.5-7.5 7.5z" fill="#423e4f"/></g><g><path d="m322.962 147.99c-4.142 0-7.5-3.357-7.5-7.5v-10.753c0-4.143 3.358-7.5 7.5-7.5s7.5 3.357 7.5 7.5v10.753c0 4.143-3.358 7.5-7.5 7.5z" fill="#423e4f"/></g></g><g><path d="m142.68 431.935c-4.142 0-7.5-3.357-7.5-7.5v-30.905c0-4.143 3.358-7.5 7.5-7.5s7.5 3.357 7.5 7.5v30.905c0 4.142-3.358 7.5-7.5 7.5z" fill="#d37159"/></g><path d="m400.226 319.067h-103.019c-15.496 0-28.104 12.607-28.104 28.104v82.415c0 15.496 12.607 28.104 28.104 28.104h103.019c15.496 0 28.104-12.607 28.104-28.104v-82.415c-.001-15.496-12.608-28.104-28.104-28.104zm13.103 28.104v33.707h-57.113v-46.811h44.009c7.226 0 13.104 5.878 13.104 13.104zm-116.122-13.104h44.009v46.811h-57.113v-33.707c.001-7.226 5.879-13.104 13.104-13.104zm-13.103 95.519v-33.708h57.113v46.812h-44.009c-7.226-.001-13.104-5.878-13.104-13.104zm116.122 13.103h-44.009v-46.812h57.113v33.708c-.001 7.227-5.879 13.104-13.104 13.104z" fill="#e7886e"/></g></svg>